# xmcd
#
# Track frame offsets:
#	150
#	39505
#	59512
#
# Disc length: 1083 seconds
#
# Revision: 1
# Processed by: cddbd v1.5.1PL0 Copyright (c) Steve Scherf et al.
# Submitted via: audiograbber 1.83.01
#
DISCID=22043903
DTITLE=Thomas Anders - Love Of My Own
DYEAR=1989
DGENRE=Pop
TTITLE0=Love Of My Own (Extended Version)
TTITLE1=True Love
TTITLE2=Love Of My Own (LP Version)
EXTD=
EXTT0=
EXTT1=
EXTT2=
PLAYORDER=
